<svg width="85" height="88" viewBox="0 0 85 88" fill="none" xmlns="http://www.w3.org/2000/svg">
<path d="M16.35 65.4C11.9167 65.4 8.36667 64.5667 5.7 62.9C3.03333 61.2 1.7 58.6167 1.7 55.15C1.7 53.3167 2.01667 51.9167 2.65 50.95C3.28333 49.9833 4.21667 49.5 5.45 49.5C6.35 49.5 7.08333 49.7333 7.65 50.2C8.21667 50.6667 8.5 51.2667 8.5 52C8.5 52.6667 8.45 53.25 8.35 53.75C8.35 53.8833 8.31667 54.1167 8.25 54.45C8.21667 54.7833 8.2 55.1333 8.2 55.5C8.2 57 8.95 58.1167 10.45 58.85C11.9833 59.5833 14.1167 59.95 16.85 59.95C19.6833 59.95 21.9 59.45 23.5 58.45C25.1 57.4167 25.9 55.9833 25.9 54.15C25.9 53.0167 25.5333 52.05 24.8 51.25C24.0667 50.4167 23.15 49.7333 22.05 49.2C20.95 48.6333 19.4 47.95 17.4 47.15C14.8333 46.15 12.7333 45.2 11.1 44.3C9.5 43.4 8.11667 42.1833 6.95 40.65C5.81667 39.0833 5.25 37.15 5.25 34.85C5.25 32.45 5.88333 30.3167 7.15 28.45C8.45 26.5833 10.3 25.1333 12.7 24.1C15.1333 23.0667 17.9833 22.55 21.25 22.55C23.6833 22.55 25.9167 22.9167 27.95 23.65C29.9833 24.35 31.6 25.4333 32.8 26.9C34.0333 28.3667 34.65 30.1667 34.65 32.3C34.65 34.4 34.3333 35.9833 33.7 37.05C33.0667 38.1167 32.1333 38.65 30.9 38.65C30.0333 38.65 29.3 38.3833 28.7 37.85C28.1333 37.3167 27.85 36.6833 27.85 35.95C27.85 35.3167 27.9 34.7333 28 34.2C28.1 33.2 28.15 32.5667 28.15 32.3C28.15 30.9 27.4667 29.8333 26.1 29.1C24.7333 28.3667 23.0333 28 21 28C18.1333 28 15.9333 28.5333 14.4 29.6C12.9 30.6333 12.15 32.1 12.15 34C12.15 35.2667 12.5333 36.35 13.3 37.25C14.1 38.15 15.0833 38.9 16.25 39.5C17.4167 40.1 19.05 40.8167 21.15 41.65C23.6833 42.6833 25.7167 43.6167 27.25 44.45C28.7833 45.2833 30.0833 46.4167 31.15 47.85C32.25 49.2833 32.8 51.05 32.8 53.15C32.8 57.0833 31.3 60.1167 28.3 62.25C25.3333 64.35 21.35 65.4 16.35 65.4ZM53.068 65.25C49.1013 65.25 45.6513 64.5333 42.718 63.1C39.7846 61.6333 37.5346 59.5667 35.968 56.9C34.4013 54.2333 33.618 51.1333 33.618 47.6C33.618 42.7 34.5346 38.35 36.368 34.55C38.2346 30.75 40.7513 27.8167 43.918 25.75C47.0846 23.65 50.6013 22.6 54.468 22.6C58.068 22.6 60.8013 23.5333 62.668 25.4C64.5346 27.2333 65.468 29.6667 65.468 32.7C65.468 34.7333 65.1013 36.3667 64.368 37.6C63.668 38.8333 62.6513 39.45 61.318 39.45C60.3846 39.45 59.6513 39.2333 59.118 38.8C58.5846 38.3667 58.318 37.7333 58.318 36.9C58.318 36.6 58.3846 36.05 58.518 35.25C58.718 34.25 58.818 33.45 58.818 32.85C58.818 29.8167 57.2013 28.3 53.968 28.3C51.768 28.3 49.668 29.0167 47.668 30.45C45.668 31.8833 44.0513 34 42.818 36.8C41.5846 39.5667 40.968 42.8667 40.968 46.7C40.968 50.7 42.0846 53.8 44.318 56C46.5513 58.1667 49.8513 59.25 54.218 59.25C56.3846 59.25 58.568 58.9833 60.768 58.45C63.0013 57.8833 65.468 57.0333 68.168 55.9C68.668 55.7 69.0846 55.6 69.418 55.6C69.9513 55.6 70.3513 55.8 70.618 56.2C70.8846 56.6 71.018 57.1167 71.018 57.75C71.018 59.7833 69.918 61.2833 67.718 62.25C65.3513 63.2833 62.8846 64.05 60.318 64.55C57.7846 65.0167 55.368 65.25 53.068 65.25ZM80.5453 41.7C81.612 41.7 82.412 41.9833 82.9453 42.55C83.512 43.0833 83.7953 43.8833 83.7953 44.95C83.7953 45.8167 83.612 47.45 83.2453 49.85C82.912 51.8833 82.6453 53.8167 82.4453 55.65C82.2453 57.45 82.1453 59.4667 82.1453 61.7C82.1453 62.9667 81.8786 63.8833 81.3453 64.45C80.8453 64.9833 80.012 65.25 78.8453 65.25C77.7453 65.25 76.9453 64.9667 76.4453 64.4C75.9453 63.8333 75.6953 62.9833 75.6953 61.85C75.6953 60.5167 75.9286 58.3167 76.3953 55.25C76.7953 52.5833 76.9953 50.8833 76.9953 50.15C76.9953 49.6167 76.812 49.35 76.4453 49.35C76.012 49.35 75.3953 49.9167 74.5953 51.05C73.7953 52.15 72.9953 53.6167 72.1953 55.45C71.3953 57.2833 70.7453 59.2167 70.2453 61.25C69.8786 62.8167 69.4453 63.8833 68.9453 64.45C68.4786 64.9833 67.7286 65.25 66.6953 65.25C65.662 65.25 64.8953 64.8833 64.3953 64.15C63.9286 63.3833 63.612 62.2167 63.4453 60.65C63.2786 59.0833 63.1953 56.7833 63.1953 53.75C63.1953 48.6167 63.712 43.2667 64.7453 37.7C65.812 32.1333 67.362 27.4667 69.3953 23.7C71.462 19.9 73.9286 18 76.7953 18C78.3286 18 79.562 18.6667 80.4953 20C81.462 21.3 81.9453 23 81.9453 25.1C81.9453 28.4667 80.962 31.9667 78.9953 35.6C77.0286 39.2 73.8286 43.4167 69.3953 48.25C69.2953 49.9833 69.2453 51.7667 69.2453 53.6C70.3453 50.7667 71.562 48.4667 72.8953 46.7C74.262 44.9 75.5953 43.6167 76.8953 42.85C78.2286 42.0833 79.4453 41.7 80.5453 41.7ZM75.7453 22.95C75.1453 22.95 74.4786 23.8167 73.7453 25.55C73.012 27.25 72.2953 29.5667 71.5953 32.5C70.9286 35.4 70.3786 38.5667 69.9453 42C72.012 39.5667 73.712 36.9167 75.0453 34.05C76.412 31.1833 77.0953 28.5833 77.0953 26.25C77.0953 25.1833 76.9786 24.3667 76.7453 23.8C76.512 23.2333 76.1786 22.95 75.7453 22.95Z" fill="#1C1D25"/>
</svg>
