<svg width="124" height="138" viewBox="0 0 124 138" fill="none" xmlns="http://www.w3.org/2000/svg">
<path d="M28.35 65.4C23.9167 65.4 20.3667 64.5667 17.7 62.9C15.0333 61.2 13.7 58.6167 13.7 55.15C13.7 53.3167 14.0167 51.9167 14.65 50.95C15.2833 49.9833 16.2167 49.5 17.45 49.5C18.35 49.5 19.0833 49.7333 19.65 50.2C20.2167 50.6667 20.5 51.2667 20.5 52C20.5 52.6667 20.45 53.25 20.35 53.75C20.35 53.8833 20.3167 54.1167 20.25 54.45C20.2167 54.7833 20.2 55.1333 20.2 55.5C20.2 57 20.95 58.1167 22.45 58.85C23.9833 59.5833 26.1167 59.95 28.85 59.95C31.6833 59.95 33.9 59.45 35.5 58.45C37.1 57.4167 37.9 55.9833 37.9 54.15C37.9 53.0167 37.5333 52.05 36.8 51.25C36.0667 50.4167 35.15 49.7333 34.05 49.2C32.95 48.6333 31.4 47.95 29.4 47.15C26.8333 46.15 24.7333 45.2 23.1 44.3C21.5 43.4 20.1167 42.1833 18.95 40.65C17.8167 39.0833 17.25 37.15 17.25 34.85C17.25 32.45 17.8833 30.3167 19.15 28.45C20.45 26.5833 22.3 25.1333 24.7 24.1C27.1333 23.0667 29.9833 22.55 33.25 22.55C35.6833 22.55 37.9167 22.9167 39.95 23.65C41.9833 24.35 43.6 25.4333 44.8 26.9C46.0333 28.3667 46.65 30.1667 46.65 32.3C46.65 34.4 46.3333 35.9833 45.7 37.05C45.0667 38.1167 44.1333 38.65 42.9 38.65C42.0333 38.65 41.3 38.3833 40.7 37.85C40.1333 37.3167 39.85 36.6833 39.85 35.95C39.85 35.3167 39.9 34.7333 40 34.2C40.1 33.2 40.15 32.5667 40.15 32.3C40.15 30.9 39.4667 29.8333 38.1 29.1C36.7333 28.3667 35.0333 28 33 28C30.1333 28 27.9333 28.5333 26.4 29.6C24.9 30.6333 24.15 32.1 24.15 34C24.15 35.2667 24.5333 36.35 25.3 37.25C26.1 38.15 27.0833 38.9 28.25 39.5C29.4167 40.1 31.05 40.8167 33.15 41.65C35.6833 42.6833 37.7167 43.6167 39.25 44.45C40.7833 45.2833 42.0833 46.4167 43.15 47.85C44.25 49.2833 44.8 51.05 44.8 53.15C44.8 57.0833 43.3 60.1167 40.3 62.25C37.3333 64.35 33.35 65.4 28.35 65.4ZM71.368 53.85C71.8013 53.85 72.1346 54.05 72.368 54.45C72.6346 54.85 72.768 55.4 72.768 56.1C72.768 57.4333 72.4513 58.4667 71.818 59.2C70.5846 60.7 68.8346 62.0833 66.568 63.35C64.3346 64.6167 61.9346 65.25 59.368 65.25C55.868 65.25 53.1513 64.3 51.218 62.4C49.2846 60.5 48.318 57.9 48.318 54.6C48.318 52.3 48.8013 50.1667 49.768 48.2C50.7346 46.2 52.068 44.6167 53.768 43.45C55.5013 42.2833 57.4513 41.7 59.618 41.7C61.5513 41.7 63.1013 42.2833 64.268 43.45C65.4346 44.5833 66.018 46.1333 66.018 48.1C66.018 50.4 65.1846 52.3833 63.518 54.05C61.8846 55.6833 59.1013 56.9833 55.168 57.95C56.0013 59.4833 57.5846 60.25 59.918 60.25C61.418 60.25 63.118 59.7333 65.018 58.7C66.9513 57.6333 68.618 56.25 70.018 54.55C70.418 54.0833 70.868 53.85 71.368 53.85ZM58.768 46.6C57.5346 46.6 56.4846 47.3167 55.618 48.75C54.7846 50.1833 54.368 51.9167 54.368 53.95V54.05C56.3346 53.5833 57.8846 52.8833 59.018 51.95C60.1513 51.0167 60.718 49.9333 60.718 48.7C60.718 48.0667 60.5346 47.5667 60.168 47.2C59.8346 46.8 59.368 46.6 58.768 46.6ZM72.2469 65.25C70.9802 65.25 70.0802 64.5833 69.5469 63.25C69.0469 61.9167 68.7969 59.7833 68.7969 56.85C68.7969 52.5167 69.4135 48.4 70.6469 44.5C70.9469 43.5333 71.4302 42.8333 72.0969 42.4C72.7969 41.9333 73.7635 41.7 74.9969 41.7C75.6635 41.7 76.1302 41.7833 76.3969 41.95C76.6635 42.1167 76.7969 42.4333 76.7969 42.9C76.7969 43.4333 76.5469 44.6333 76.0469 46.5C75.7135 47.8333 75.4469 49 75.2469 50C75.0469 51 74.8802 52.2333 74.7469 53.7C75.8469 50.8333 77.0802 48.5 78.4469 46.7C79.8135 44.9 81.1469 43.6167 82.4469 42.85C83.7802 42.0833 84.9969 41.7 86.0969 41.7C88.2635 41.7 89.3469 42.7833 89.3469 44.95C89.3469 45.3833 89.1969 46.4333 88.8969 48.1C88.6302 49.4333 88.4969 50.2667 88.4969 50.6C88.4969 51.7667 88.9135 52.35 89.7469 52.35C90.6802 52.35 91.8802 51.6167 93.3469 50.15C93.7802 49.7167 94.2302 49.5 94.6969 49.5C95.1302 49.5 95.4635 49.7 95.6969 50.1C95.9635 50.4667 96.0969 50.9667 96.0969 51.6C96.0969 52.8333 95.7635 53.8 95.0969 54.5C94.1635 55.4667 93.0635 56.3 91.7969 57C90.5635 57.6667 89.2469 58 87.8469 58C86.0802 58 84.7302 57.55 83.7969 56.65C82.8969 55.75 82.4469 54.5333 82.4469 53C82.4469 52.5 82.4969 52 82.5969 51.5C82.6635 50.8333 82.6969 50.3833 82.6969 50.15C82.6969 49.6167 82.5135 49.35 82.1469 49.35C81.6469 49.35 80.9802 49.9167 80.1469 51.05C79.3469 52.15 78.5469 53.6167 77.7469 55.45C76.9469 57.2833 76.2969 59.2167 75.7969 61.25C75.4302 62.8167 74.9969 63.8833 74.4969 64.45C74.0302 64.9833 73.2802 65.25 72.2469 65.25ZM98.0008 38.4C96.6008 38.4 95.5508 38.0833 94.8508 37.45C94.1508 36.7833 93.8008 35.8667 93.8008 34.7C93.8008 33.5333 94.2508 32.5667 95.1508 31.8C96.0841 31 97.2341 30.6 98.6008 30.6C99.8341 30.6 100.834 30.9 101.601 31.5C102.367 32.1 102.751 32.95 102.751 34.05C102.751 35.3833 102.317 36.45 101.451 37.25C100.584 38.0167 99.4341 38.4 98.0008 38.4ZM97.6008 65.25C95.4341 65.25 93.8508 64.4833 92.8508 62.95C91.8841 61.4167 91.4008 59.3833 91.4008 56.85C91.4008 55.35 91.5841 53.4333 91.9508 51.1C92.3508 48.7333 92.8508 46.5333 93.4508 44.5C93.7508 43.4333 94.1508 42.7 94.6508 42.3C95.1508 41.9 95.9508 41.7 97.0508 41.7C98.7508 41.7 99.6008 42.2667 99.6008 43.4C99.6008 44.2333 99.2841 46.1667 98.6508 49.2C97.8508 52.8667 97.4508 55.35 97.4508 56.65C97.4508 57.65 97.5841 58.4167 97.8508 58.95C98.1174 59.4833 98.5674 59.75 99.2008 59.75C99.8008 59.75 100.551 59.3333 101.451 58.5C102.351 57.6667 103.551 56.35 105.051 54.55C105.451 54.0833 105.901 53.85 106.401 53.85C106.834 53.85 107.167 54.05 107.401 54.45C107.667 54.85 107.801 55.4 107.801 56.1C107.801 57.4333 107.484 58.4667 106.851 59.2C103.551 63.2333 100.467 65.25 97.6008 65.25ZM121.255 41.7C122.022 41.7 122.555 41.8 122.855 42C123.155 42.2 123.305 42.5333 123.305 43C123.305 43.8 122.872 46.65 122.005 51.55C121.239 56.25 120.789 59.0333 120.655 59.9C119.422 68.4667 117.722 75.25 115.555 80.25C113.389 85.25 110.505 87.75 106.905 87.75C105.205 87.75 103.822 87.2167 102.755 86.15C101.689 85.1167 101.155 83.75 101.155 82.05C101.155 80.4833 101.505 78.8833 102.205 77.25C102.939 75.6167 104.272 73.7333 106.205 71.6C108.172 69.5 110.939 67.0833 114.505 64.35L114.655 63.2C114.889 61.9667 115.155 60.2 115.455 57.9C114.789 60.3 113.855 62.1333 112.655 63.4C111.455 64.6333 110.189 65.25 108.855 65.25C107.355 65.25 106.122 64.5667 105.155 63.2C104.222 61.8 103.755 60.0667 103.755 58C103.755 55.5 103.922 53.2167 104.255 51.15C104.589 49.05 105.139 46.8333 105.905 44.5C106.239 43.5 106.705 42.7833 107.305 42.35C107.905 41.9167 108.855 41.7 110.155 41.7C110.889 41.7 111.389 41.8167 111.655 42.05C111.955 42.2833 112.105 42.6333 112.105 43.1C112.105 43.3667 111.922 44.2667 111.555 45.8C111.222 47.0333 110.955 48.15 110.755 49.15C110.489 50.5167 110.255 51.8333 110.055 53.1C109.855 54.3333 109.755 55.35 109.755 56.15C109.755 57.4167 110.105 58.05 110.805 58.05C111.305 58.05 111.922 57.55 112.655 56.55C113.422 55.55 114.222 54.0333 115.055 52C115.922 49.9667 116.755 47.4667 117.555 44.5C117.822 43.5 118.222 42.7833 118.755 42.35C119.322 41.9167 120.155 41.7 121.255 41.7ZM107.455 82.9C108.289 82.9 109.222 81.9333 110.255 80C111.289 78.0667 112.322 74.85 113.355 70.35C110.789 72.5167 108.922 74.4833 107.755 76.25C106.622 78.05 106.055 79.6167 106.055 80.95C106.055 81.5167 106.155 81.9833 106.355 82.35C106.589 82.7167 106.955 82.9 107.455 82.9Z" fill="#AFB2C2"/>
<path d="M43.2 93.4C43.9667 93.4 44.5167 93.5667 44.85 93.9C45.2167 94.2333 45.4 94.6667 45.4 95.2C45.4 96.0667 45.1333 96.8333 44.6 97.5C44.1 98.1667 43.3 98.5167 42.2 98.55C39.5333 98.6167 37.1667 98.4167 35.1 97.95C32.7333 102.917 29.8667 107.05 26.5 110.35C23.1667 113.617 19.8167 115.25 16.45 115.25C12.9833 115.25 10.4 113.233 8.7 109.2C7 105.167 6.15 99.7167 6.15 92.85C6.15 86.9833 6.56667 81.7167 7.4 77.05C7.7 75.3167 8.11667 74.15 8.65 73.55C9.21667 72.9167 10.1667 72.6 11.5 72.6C13.7 72.6 14.8 73.55 14.8 75.45C14.8 75.65 14.7667 76.0167 14.7 76.55C13.7 82.55 13.2 87.9833 13.2 92.85C13.2 97.95 13.6167 101.833 14.45 104.5C15.3167 107.133 16.6 108.45 18.3 108.45C20.0333 108.45 21.9167 107.25 23.95 104.85C25.9833 102.45 27.85 99.4333 29.55 95.8C27.5167 94.5333 25.9833 92.9 24.95 90.9C23.9167 88.8667 23.4 86.5333 23.4 83.9C23.4 81.2667 23.8 79.05 24.6 77.25C25.4333 75.4167 26.55 74.05 27.95 73.15C29.3833 72.25 30.9667 71.8 32.7 71.8C34.8333 71.8 36.5167 72.5667 37.75 74.1C39.0167 75.6333 39.65 77.7333 39.65 80.4C39.65 84.2333 38.8167 88.4167 37.15 92.95C38.9167 93.25 40.9333 93.4 43.2 93.4ZM28.45 83.55C28.45 86.8167 29.5 89.2333 31.6 90.8C32.9 87.0667 33.55 83.9833 33.55 81.55C33.55 80.15 33.3667 79.1333 33 78.5C32.6333 77.8333 32.1333 77.5 31.5 77.5C30.6 77.5 29.8667 78.0333 29.3 79.1C28.7333 80.1333 28.45 81.6167 28.45 83.55ZM66.0348 99.65C66.4681 99.65 66.8014 99.8667 67.0348 100.3C67.2681 100.733 67.3848 101.283 67.3848 101.95C67.3848 103.55 66.9014 104.5 65.9348 104.8C63.9348 105.5 61.7348 105.9 59.3348 106C58.7014 108.8 57.4514 111.05 55.5848 112.75C53.7181 114.417 51.6014 115.25 49.2348 115.25C47.2348 115.25 45.5181 114.767 44.0848 113.8C42.6848 112.833 41.6181 111.55 40.8848 109.95C40.1514 108.35 39.7848 106.617 39.7848 104.75C39.7848 102.217 40.2681 99.9667 41.2348 98C42.2014 96 43.5348 94.45 45.2348 93.35C46.9348 92.2167 48.8181 91.65 50.8848 91.65C53.4181 91.65 55.4514 92.5333 56.9848 94.3C58.5514 96.0333 59.4681 98.1833 59.7348 100.75C61.3014 100.65 63.1681 100.317 65.3348 99.75C65.6014 99.6833 65.8348 99.65 66.0348 99.65ZM49.6348 109.95C50.7014 109.95 51.6181 109.517 52.3848 108.65C53.1848 107.783 53.7181 106.533 53.9848 104.9C52.9514 104.2 52.1514 103.283 51.5848 102.15C51.0514 101.017 50.7848 99.8167 50.7848 98.55C50.7848 98.0167 50.8348 97.4833 50.9348 96.95H50.6848C49.3514 96.95 48.2348 97.6 47.3348 98.9C46.4681 100.167 46.0348 101.967 46.0348 104.3C46.0348 106.133 46.3848 107.533 47.0848 108.5C47.8181 109.467 48.6681 109.95 49.6348 109.95ZM82.0434 103.85C82.4767 103.85 82.81 104.05 83.0434 104.45C83.31 104.85 83.4434 105.4 83.4434 106.1C83.4434 107.433 83.1267 108.467 82.4934 109.2C81.06 110.967 79.4934 112.417 77.7934 113.55C76.1267 114.683 74.2267 115.25 72.0934 115.25C69.16 115.25 66.9767 113.917 65.5434 111.25C64.1434 108.583 63.4434 105.133 63.4434 100.9C63.4434 96.8333 63.96 92.2 64.9934 87C66.06 81.8 67.61 77.3333 69.6434 73.6C71.71 69.8667 74.16 68 76.9934 68C78.5934 68 79.8434 68.75 80.7434 70.25C81.6767 71.7167 82.1434 73.8333 82.1434 76.6C82.1434 80.5667 81.0434 85.1667 78.8434 90.4C76.6434 95.6333 73.66 100.817 69.8934 105.95C70.1267 107.317 70.51 108.3 71.0434 108.9C71.5767 109.467 72.2767 109.75 73.1434 109.75C74.51 109.75 75.71 109.367 76.7434 108.6C77.7767 107.8 79.0934 106.45 80.6934 104.55C81.0934 104.083 81.5434 103.85 82.0434 103.85ZM75.8934 72.95C75.1267 72.95 74.26 74.3333 73.2934 77.1C72.3267 79.8667 71.4767 83.3 70.7434 87.4C70.01 91.5 69.61 95.4333 69.5434 99.2C71.91 95.3 73.7934 91.4 75.1934 87.5C76.5934 83.5667 77.2934 79.9833 77.2934 76.75C77.2934 74.2167 76.8267 72.95 75.8934 72.95ZM100.652 109.8C102.019 110.067 102.702 110.817 102.702 112.05C102.702 112.883 102.319 113.633 101.552 114.3C100.819 114.933 99.752 115.25 98.352 115.25C95.952 115.25 93.9853 114.517 92.452 113.05C90.952 111.55 90.202 109.6 90.202 107.2C90.202 105.9 90.8686 104.967 92.202 104.4C93.6686 103.767 94.7186 103.1 95.352 102.4C95.9853 101.667 96.302 100.783 96.302 99.75C96.302 99.15 96.1686 98.7 95.902 98.4C95.6686 98.1 95.3686 97.95 95.002 97.95C94.102 97.95 93.102 98.6 92.002 99.9C90.9353 101.2 89.9353 102.883 89.002 104.95C88.0686 106.983 87.3353 109.083 86.802 111.25C86.4353 112.817 86.002 113.883 85.502 114.45C85.0353 114.983 84.2853 115.25 83.252 115.25C82.2186 115.25 81.452 114.883 80.952 114.15C80.4853 113.383 80.1686 112.217 80.002 110.65C79.8353 109.083 79.752 106.783 79.752 103.75C79.752 98.6167 80.2686 93.2667 81.302 87.7C82.3686 82.1333 83.9186 77.4667 85.952 73.7C88.0186 69.9 90.4853 68 93.352 68C94.8853 68 96.1186 68.6667 97.052 70C98.0186 71.3 98.502 73 98.502 75.1C98.502 78.4667 97.5186 81.9667 95.552 85.6C93.5853 89.2 90.3853 93.4167 85.952 98.25C85.852 99.9833 85.802 101.767 85.802 103.6C87.402 99.4333 89.2353 96.4167 91.302 94.55C93.3686 92.65 95.302 91.7 97.102 91.7C98.7686 91.7 100.102 92.2667 101.102 93.4C102.135 94.5333 102.652 95.9333 102.652 97.6C102.652 99.4333 102.185 101.117 101.252 102.65C100.319 104.183 98.7186 105.55 96.452 106.75C96.652 107.75 97.052 108.45 97.652 108.85C98.2853 109.217 99.2853 109.533 100.652 109.8ZM92.302 72.95C91.702 72.95 91.0353 73.8167 90.302 75.55C89.5686 77.25 88.852 79.5667 88.152 82.5C87.4853 85.4 86.9353 88.5667 86.502 92C88.5686 89.5667 90.2686 86.9167 91.602 84.05C92.9686 81.1833 93.652 78.5833 93.652 76.25C93.652 75.1833 93.5353 74.3667 93.302 73.8C93.0686 73.2333 92.7353 72.95 92.302 72.95Z" fill="#AFB2C2"/>
</svg>
